# xmcd
#
# Track frame offsets:
#	150
#	35211
#	56818
#	83605
#	117400
#	134296
#	159561
#	190738
#	218158
#	231699
#	243572
#	256240
#	269147
#	280804
#	294275
#
# Disc length: 4115 seconds
#
# Revision: 1
# Processed by: cddbd v1.5.2PL0 Copyright (c) Steve Scherf et al.
# Submitted via: audiograbber 1.83.01
#
DISCID=eb10110f
DTITLE=Murgas - Murgas 2012 - CD #2
DYEAR=2012
DGENRE=Murga
TTITLE0=Queso Magro - Retirada
TTITLE1=Araca La Cana - Saludo
TTITLE2=La Margarita - Saludo
TTITLE3=Alicia - Retirada
TTITLE4=La Leyenda - Saludo
TTITLE5=La Gran Siete - Saludo
TTITLE6=La Clave - Retirada
TTITLE7=La Soñada - Retirada
TTITLE8=La Del Estribo - Saludo "Varieté"
TTITLE9=Curtidores De Hongos - Misteriosos sones
TTITLE10=Alejandro Balbis - Nebulosamente
TTITLE11=Damián Salina - El silencio del Sur
TTITLE12=Pablo Milich - Y llegó de repente
TTITLE13=Canario Luna - Milonga igual
TTITLE14=El Alemán - Yendo al revés
EXTD=
EXTT0=
EXTT1=
EXTT2=
EXTT3=
EXTT4=
EXTT5=
EXTT6=
EXTT7=
EXTT8=
EXTT9=
EXTT10=
EXTT11=
EXTT12=
EXTT13=
EXTT14=
PLAYORDER=
